# xmcd
#
# Track frame offsets:
#	150
#	14188
#	33358
#	50283
#	68235
#	86033
#	103198
#	118429
#	137130
#	152094
#	166132
#	185302
#	202227
#	220179
#	237977
#	255142
#	270373
#	289074
#
# Disc length: 4053 seconds
#
# Revision: 1
# Processed by: cddbd v1.5.2PL0 Copyright (c) Steve Scherf et al.
# Submitted via: audiograbber 1.83.01
#
DISCID=090fd312
DTITLE=Various Artist - Pop Hits Monthly 0508-P
DYEAR=2005
DGENRE=karaoke
TTITLE0=Cool - Gwen Stefani
TTITLE1=Shake It Off - Mariah Carey
TTITLE2=Pon De Replay - Rihanna
TTITLE3=These Boots Are Made For Walkin' - Jessica Simpson
TTITLE4=Inside Your Heaven - Carrie Underwood
TTITLE5=Almost Perfect - Ingram Hill
TTITLE6=Can't Behave - Courtney Jaye
TTITLE7=Just The Girl - The Click Five
TTITLE8=Wordplay - Jason Mraz
TTITLE9=Cool - Gwen Stefani (vocal)
TTITLE10=Shake It Off - Mariah Carey (vocal)
TTITLE11=Pon De Replay - Rihanna vocal)
TTITLE12=These Boots Are Made For Walkin' - Jessica Simpson (vocal)
TTITLE13=Inside Your Heaven - Carrie Underwood (vocal)
TTITLE14=Almost Perfect - Ingram Hill (vocal)
TTITLE15=Can't Behave - Courtney Jaye (vocal)
TTITLE16=Just The Girl - The Click Five (vocal)
TTITLE17=Wordplay - Jason Mraz (vocal)
EXTD=
EXTT0=
EXTT1=
EXTT2=
EXTT3=
EXTT4=
EXTT5=
EXTT6=
EXTT7=
EXTT8=
EXTT9=
EXTT10=
EXTT11=
EXTT12=
EXTT13=
EXTT14=
EXTT15=
EXTT16=
EXTT17=
PLAYORDER=
